# xmcd CD database file
#
# Track frame offsets:
#	150
#	11494
#	56317
#	73549
#	107085
#	179362
#
# Disc length: 2624 seconds
#
# Revision: 0
# Processed by: cddbd v1.5.2PL0 Copyright (c) Steve Scherf et al.
# Submitted via: CDex 1.51
#
DISCID=450a3e06
DTITLE=Kevin Brunkhorst/Paul Tynan - Digital/Spiritual
DYEAR=2005
DGENRE=Jazz
TTITLE0=Being There
TTITLE1=Babel (or: Language as a mitigator of terror) Our Foreign Policy
TTITLE2=The Chair
TTITLE3=My Next Wife
TTITLE4=How Spacemen Lose Weight
TTITLE5=Sorry Please
EXTD=YEAR: 2005
EXTT0=
EXTT1=
EXTT2=
EXTT3=
EXTT4=
EXTT5=
PLAYORDER=
